<svg width="223" height="22" viewBox="0 0 223 22" fill="none" xmlns="http://www.w3.org/2000/svg">
<path opacity="0.2" d="M0 11L61 11" stroke="#52525B"/>
<path d="M74.8242 16.1367C76.7861 16.1367 78.1123 14.7148 78.1123 12.4453V12.4316C78.1123 10.1621 76.7793 8.75391 74.8174 8.75391C72.8555 8.75391 71.5293 10.1689 71.5293 12.4316V12.4453C71.5293 14.708 72.8486 16.1367 74.8242 16.1367ZM74.8311 15.084C73.5732 15.084 72.7461 14.1201 72.7461 12.4453V12.4316C72.7461 10.7705 73.5801 9.80664 74.8174 9.80664C76.0752 9.80664 76.8955 10.7637 76.8955 12.4316V12.4453C76.8955 14.1133 76.082 15.084 74.8311 15.084ZM79.3154 16H80.5049V11.6113C80.5049 10.5312 81.1064 9.88867 82.0293 9.88867C82.3164 9.88867 82.5693 9.92285 82.665 9.95703V8.80176C82.5693 8.78809 82.3916 8.75391 82.1865 8.75391C81.3867 8.75391 80.7715 9.27344 80.5322 10.0938H80.5049V8.89062H79.3154V16ZM89.0293 16.1367C90.6152 16.1367 91.791 15.2617 91.791 14.0176V14.0107C91.791 12.999 91.2715 12.4316 89.8359 12.083L88.708 11.8096C87.9219 11.6182 87.6006 11.2832 87.6006 10.7979V10.791C87.6006 10.1621 88.1338 9.74512 88.9951 9.74512C89.877 9.74512 90.4033 10.2031 90.499 10.8936L90.5059 10.9414H91.6406L91.6338 10.8525C91.5449 9.66309 90.5537 8.75391 88.9951 8.75391C87.457 8.75391 86.3838 9.62207 86.3838 10.8457V10.8525C86.3838 11.8779 87.0332 12.5 88.373 12.8213L89.501 13.0947C90.3076 13.293 90.5742 13.5801 90.5742 14.0928V14.0996C90.5742 14.7422 90 15.1455 89.0361 15.1455C88.0654 15.1455 87.5391 14.7285 87.3955 14.0176L87.3818 13.9492H86.1924L86.1992 14.0107C86.3428 15.2822 87.3545 16.1367 89.0293 16.1367ZM93.6982 7.6875C94.1152 7.6875 94.4434 7.35254 94.4434 6.94238C94.4434 6.52539 94.1152 6.19727 93.6982 6.19727C93.2881 6.19727 92.9531 6.52539 92.9531 6.94238C92.9531 7.35254 93.2881 7.6875 93.6982 7.6875ZM93.1035 16H94.293V8.89062H93.1035V16ZM98.9209 18.5293C100.849 18.5293 102.059 17.4492 102.059 15.8018V8.89062H100.869V10.0938H100.842C100.404 9.30078 99.6113 8.75391 98.6064 8.75391C96.8018 8.75391 95.5645 10.1895 95.5645 12.3975V12.4043C95.5645 14.626 96.7881 16.0684 98.5791 16.0684C99.5977 16.0684 100.418 15.5625 100.842 14.7764H100.869V15.6855C100.869 16.7861 100.158 17.4766 98.9072 17.4766C97.9365 17.4766 97.2598 17.1621 97.0342 16.6494L97.0068 16.5879H95.8105L95.8242 16.6494C96.0566 17.7021 97.1641 18.5293 98.9209 18.5293ZM98.8389 15.0156C97.5742 15.0156 96.7812 14.0176 96.7812 12.4043V12.3975C96.7812 10.8184 97.5742 9.80664 98.8389 9.80664C100.042 9.80664 100.869 10.832 100.869 12.3975V12.4043C100.869 13.9834 100.049 15.0156 98.8389 15.0156ZM103.597 16H104.786V11.8164C104.786 10.6064 105.518 9.80664 106.639 9.80664C107.732 9.80664 108.272 10.4424 108.272 11.5977V16H109.462V11.3857C109.462 9.76562 108.56 8.75391 107.001 8.75391C105.921 8.75391 105.196 9.23926 104.813 9.90234H104.786V8.89062H103.597V16ZM114.521 7.6875C114.938 7.6875 115.266 7.35254 115.266 6.94238C115.266 6.52539 114.938 6.19727 114.521 6.19727C114.11 6.19727 113.775 6.52539 113.775 6.94238C113.775 7.35254 114.11 7.6875 114.521 7.6875ZM113.926 16H115.115V8.89062H113.926V16ZM116.735 16H117.925V11.8164C117.925 10.6064 118.656 9.80664 119.777 9.80664C120.871 9.80664 121.411 10.4424 121.411 11.5977V16H122.601V11.3857C122.601 9.76562 121.698 8.75391 120.14 8.75391C119.06 8.75391 118.335 9.23926 117.952 9.90234H117.925V8.89062H116.735V16ZM128.397 16H129.607L131.207 10.4971H131.234L132.841 16H134.051L136.033 8.89062H134.857L133.436 14.6738H133.408L131.795 8.89062H130.646L129.04 14.6738H129.013L127.591 8.89062H126.408L128.397 16ZM137.681 7.6875C138.098 7.6875 138.426 7.35254 138.426 6.94238C138.426 6.52539 138.098 6.19727 137.681 6.19727C137.271 6.19727 136.936 6.52539 136.936 6.94238C136.936 7.35254 137.271 7.6875 137.681 7.6875ZM137.086 16H138.275V8.89062H137.086V16ZM142.206 16.1367C142.438 16.1367 142.691 16.1094 142.842 16.0889V15.125C142.739 15.1318 142.603 15.1523 142.459 15.1523C141.823 15.1523 141.488 14.9404 141.488 14.1816V9.875H142.842V8.89062H141.488V6.96973H140.258V8.89062H139.219V9.875H140.258V14.1885C140.258 15.5488 140.9 16.1367 142.206 16.1367ZM144.182 16H145.371V11.8506C145.371 10.6406 146.103 9.80664 147.203 9.80664C148.311 9.80664 148.967 10.5654 148.967 11.8506V16H150.156V11.6455C150.156 9.92285 149.124 8.75391 147.613 8.75391C146.554 8.75391 145.781 9.22559 145.398 10.0254H145.371V6.13574H144.182V16Z" fill="#52525B"/>
<path opacity="0.2" d="M161 11L223 11" stroke="#52525B"/>
</svg>
