<svg width="168" height="72" viewBox="0 0 168 72" fill="none" xmlns="http://www.w3.org/2000/svg">
<circle cx="36" cy="36" r="36" fill="black"/>
<path d="M62 38C64.2091 38 66.0275 39.7989 65.7338 41.9884C64.8642 48.4725 61.8908 54.5356 57.2132 59.2132C51.5871 64.8393 43.9565 68 36 68C28.0435 68 20.4129 64.8393 14.7868 59.2132C10.1092 54.5356 7.13583 48.4725 6.26619 41.9884C5.97253 39.7989 7.79086 38 10 38L36 38H62Z" fill="white"/>
<path d="M89.0568 27.8125V25.5455H102.565V27.8125H97.1193V43H94.4943V27.8125H89.0568ZM107.374 43.2898C106.545 43.2898 105.795 43.1364 105.124 42.8295C104.454 42.517 103.923 42.0653 103.531 41.4744C103.144 40.8835 102.951 40.1591 102.951 39.3011C102.951 38.5625 103.093 37.9545 103.377 37.4773C103.661 37 104.045 36.6222 104.528 36.3438C105.011 36.0653 105.55 35.8551 106.147 35.7131C106.744 35.571 107.352 35.4631 107.971 35.3892C108.755 35.2983 109.391 35.2244 109.88 35.1676C110.369 35.1051 110.724 35.0057 110.945 34.8693C111.167 34.733 111.278 34.5114 111.278 34.2045V34.1449C111.278 33.4006 111.067 32.8239 110.647 32.4148C110.232 32.0057 109.613 31.8011 108.789 31.8011C107.931 31.8011 107.255 31.9915 106.761 32.3722C106.272 32.7472 105.934 33.1648 105.746 33.625L103.352 33.0795C103.636 32.2841 104.05 31.642 104.596 31.1534C105.147 30.6591 105.781 30.3011 106.496 30.0795C107.212 29.8523 107.965 29.7386 108.755 29.7386C109.278 29.7386 109.832 29.8011 110.417 29.9261C111.008 30.0455 111.559 30.267 112.07 30.5909C112.587 30.9148 113.011 31.3778 113.34 31.9801C113.67 32.5767 113.835 33.3523 113.835 34.3068V43H111.346V41.2102H111.244C111.079 41.5398 110.832 41.8636 110.502 42.1818C110.173 42.5 109.749 42.7642 109.232 42.9744C108.715 43.1847 108.096 43.2898 107.374 43.2898ZM107.928 41.2443C108.633 41.2443 109.235 41.1051 109.735 40.8267C110.241 40.5483 110.624 40.1847 110.886 39.7358C111.153 39.2812 111.286 38.7955 111.286 38.2784V36.5909C111.195 36.6818 111.019 36.767 110.758 36.8466C110.502 36.9205 110.21 36.9858 109.88 37.0426C109.55 37.0937 109.229 37.142 108.917 37.1875C108.604 37.2273 108.343 37.2614 108.133 37.2898C107.638 37.3523 107.187 37.4574 106.778 37.6051C106.374 37.7528 106.05 37.9659 105.806 38.2443C105.567 38.517 105.448 38.8807 105.448 39.3352C105.448 39.9659 105.681 40.4432 106.147 40.767C106.613 41.0852 107.207 41.2443 107.928 41.2443ZM119.24 29.9091L122.129 35.0057L125.044 29.9091H127.831L123.749 36.4545L127.865 43H125.078L122.129 38.108L119.189 43H116.393L120.467 36.4545L116.445 29.9091H119.24Z" fill="black"/>
<path d="M130.251 43V25.5455H137.138C138.462 25.5455 139.589 25.7983 140.521 26.304C141.453 26.804 142.163 27.5 142.652 28.392C143.146 29.2784 143.393 30.3011 143.393 31.4602C143.393 32.6193 143.143 33.642 142.643 34.5284C142.143 35.4148 141.419 36.1051 140.47 36.5994C139.527 37.0937 138.385 37.3409 137.044 37.3409H132.655V34.3835H136.447C137.158 34.3835 137.743 34.2614 138.203 34.017C138.669 33.767 139.016 33.4233 139.243 32.9858C139.476 32.5426 139.592 32.0341 139.592 31.4602C139.592 30.8807 139.476 30.375 139.243 29.9432C139.016 29.5057 138.669 29.1676 138.203 28.929C137.737 28.6847 137.146 28.5625 136.43 28.5625H133.942V43H130.251ZM149.104 43.2472C148.268 43.2472 147.524 43.1023 146.871 42.8125C146.217 42.517 145.7 42.0824 145.32 41.5085C144.945 40.929 144.757 40.2074 144.757 39.3438C144.757 38.6165 144.891 38.0057 145.158 37.5114C145.425 37.017 145.788 36.6193 146.249 36.3182C146.709 36.017 147.232 35.7898 147.817 35.6364C148.408 35.483 149.027 35.375 149.675 35.3125C150.436 35.233 151.05 35.1591 151.516 35.0909C151.982 35.017 152.32 34.9091 152.53 34.767C152.74 34.625 152.845 34.4148 152.845 34.1364V34.0852C152.845 33.5455 152.675 33.1278 152.334 32.8324C151.999 32.5369 151.521 32.3892 150.902 32.3892C150.249 32.3892 149.729 32.5341 149.342 32.8239C148.956 33.108 148.7 33.4659 148.575 33.8977L145.217 33.625C145.388 32.8295 145.723 32.142 146.223 31.5625C146.723 30.9773 147.368 30.5284 148.158 30.2159C148.953 29.8977 149.874 29.7386 150.919 29.7386C151.646 29.7386 152.342 29.8239 153.007 29.9943C153.678 30.1648 154.271 30.429 154.788 30.7869C155.311 31.1449 155.723 31.6051 156.024 32.1676C156.325 32.7244 156.476 33.392 156.476 34.1705V43H153.033V41.1847H152.93C152.72 41.5938 152.439 41.9545 152.087 42.267C151.734 42.5739 151.311 42.8153 150.817 42.9915C150.322 43.1619 149.751 43.2472 149.104 43.2472ZM150.143 40.7415C150.678 40.7415 151.149 40.6364 151.558 40.4261C151.967 40.2102 152.288 39.9205 152.521 39.5568C152.754 39.1932 152.871 38.7812 152.871 38.321V36.9318C152.757 37.0057 152.601 37.0739 152.402 37.1364C152.209 37.1932 151.99 37.2472 151.746 37.2983C151.501 37.3437 151.257 37.3864 151.013 37.4261C150.768 37.4602 150.547 37.4915 150.348 37.5199C149.922 37.5824 149.55 37.6818 149.232 37.8182C148.913 37.9545 148.666 38.1392 148.49 38.3722C148.314 38.5994 148.226 38.8835 148.226 39.2244C148.226 39.7188 148.405 40.0966 148.763 40.358C149.126 40.6136 149.587 40.7415 150.143 40.7415ZM162.923 25.5455V43H159.293V25.5455H162.923Z" fill="#111827"/>
</svg>
