<svg width="98" height="48" viewBox="0 0 98 48" fill="none" xmlns="http://www.w3.org/2000/svg">
<path d="M4.752 7.832C3.984 7.832 3.4 7.96 3 8.216C2.616 8.456 2.336 8.792 2.16 9.224C2 9.656 1.864 10.168 1.752 10.76C1.576 10.76 1.376 10.744 1.152 10.712C0.928 10.68 0.744 10.624 0.6 10.544C0.728 9.872 0.824 9.2 0.888 8.528C0.952 7.856 0.984 7.248 0.984 6.704C1.432 6.72 1.976 6.736 2.616 6.752C3.272 6.768 3.976 6.776 4.728 6.776C5.496 6.776 6.288 6.776 7.104 6.776C7.92 6.776 8.712 6.776 9.48 6.776C10.264 6.776 10.984 6.768 11.64 6.752C12.296 6.736 12.84 6.72 13.272 6.704C13.256 7.28 13.256 7.872 13.272 8.48C13.304 9.088 13.352 9.776 13.416 10.544C13.256 10.624 13.072 10.688 12.864 10.736C12.672 10.768 12.456 10.776 12.216 10.76C12.2 9.816 11.976 9.096 11.544 8.6C11.128 8.088 10.448 7.832 9.504 7.832H4.752ZM5.976 7.424H8.232V19.952C8.232 20.48 8.28 20.896 8.376 21.2C8.472 21.488 8.656 21.696 8.928 21.824C9.2 21.936 9.592 22.008 10.104 22.04C10.152 22.168 10.184 22.32 10.2 22.496C10.216 22.656 10.224 22.848 10.224 23.072C9.712 23.04 9.184 23.016 8.64 23C8.112 23 7.592 23 7.08 23C6.744 23 6.384 23 6 23C5.632 23.016 5.272 23.024 4.92 23.024C4.568 23.04 4.24 23.056 3.936 23.072C3.936 22.848 3.944 22.656 3.96 22.496C3.976 22.32 4.008 22.168 4.056 22.04C4.568 22.008 4.96 21.936 5.232 21.824C5.52 21.696 5.712 21.488 5.808 21.2C5.92 20.896 5.976 20.48 5.976 19.952V7.424ZM20.8414 23.216C20.6654 23.136 20.5214 22.992 20.4094 22.784C20.3134 22.576 20.2654 22.248 20.2654 21.8C20.2654 21.656 20.2734 21.488 20.2894 21.296C20.3054 21.088 20.3374 20.904 20.3854 20.744H20.4334C20.3854 21 20.2734 21.28 20.0974 21.584C19.9374 21.872 19.7214 22.128 19.4494 22.352C19.1774 22.592 18.8334 22.792 18.4174 22.952C18.0014 23.096 17.4974 23.168 16.9054 23.168C15.8974 23.168 15.1294 22.944 14.6014 22.496C14.0734 22.032 13.8094 21.408 13.8094 20.624C13.8094 20 13.9534 19.472 14.2414 19.04C14.5454 18.592 14.9294 18.224 15.3934 17.936C15.8734 17.632 16.3854 17.392 16.9294 17.216C17.4894 17.04 18.0334 16.904 18.5614 16.808C19.0894 16.712 19.5534 16.632 19.9534 16.568C19.9534 15.912 19.9374 15.4 19.9054 15.032C19.8894 14.664 19.8414 14.376 19.7614 14.168C19.6974 13.944 19.5934 13.752 19.4494 13.592C19.2574 13.352 19.0334 13.176 18.7774 13.064C18.5374 12.936 18.2654 12.872 17.9614 12.872C17.4334 12.872 17.0174 13.04 16.7134 13.376C16.4094 13.696 16.1934 14.072 16.0654 14.504C15.9374 14.936 15.8654 15.32 15.8494 15.656C15.6734 15.656 15.4494 15.648 15.1774 15.632C14.9214 15.6 14.7294 15.552 14.6014 15.488C14.6334 15.088 14.6414 14.64 14.6254 14.144C14.6094 13.648 14.5614 13.224 14.4814 12.872C15.1374 12.536 15.8254 12.272 16.5454 12.08C17.2814 11.888 17.9534 11.792 18.5614 11.792C19.1534 11.792 19.6574 11.88 20.0734 12.056C20.5054 12.216 20.8494 12.432 21.1054 12.704C21.5214 13.104 21.7934 13.632 21.9214 14.288C22.0494 14.928 22.1134 15.784 22.1134 16.856V19.496C22.1134 19.944 22.1454 20.304 22.2094 20.576C22.2894 20.832 22.4334 21.024 22.6414 21.152C22.8494 21.264 23.1694 21.336 23.6014 21.368C23.6014 21.528 23.5934 21.712 23.5774 21.92C23.5614 22.112 23.5214 22.296 23.4574 22.472C23.0574 22.488 22.6094 22.568 22.1134 22.712C21.6334 22.84 21.2094 23.008 20.8414 23.216ZM17.5774 21.848C17.9294 21.848 18.2894 21.736 18.6574 21.512C19.0254 21.272 19.3294 20.904 19.5694 20.408C19.8254 19.912 19.9534 19.264 19.9534 18.464V17.552C19.5534 17.6 19.1294 17.672 18.6814 17.768C18.2334 17.848 17.8174 17.976 17.4334 18.152C17.0494 18.328 16.7374 18.576 16.4974 18.896C16.2574 19.2 16.1374 19.616 16.1374 20.144C16.1374 20.736 16.2814 21.168 16.5694 21.44C16.8574 21.712 17.1934 21.848 17.5774 21.848ZM30.3761 18.248L29.2001 19.976C28.7041 20.712 28.4961 21.24 28.5761 21.56C28.6721 21.88 28.9521 22.04 29.4161 22.04C29.4641 22.152 29.4961 22.304 29.5121 22.496C29.5441 22.688 29.5601 22.872 29.5601 23.048C29.1121 23.016 28.6401 23 28.1441 23C27.6481 23 27.2801 23 27.0401 23C26.8641 23 26.6081 23 26.2721 23C25.9521 23 25.5441 23.016 25.0481 23.048C25.0481 22.872 25.0561 22.696 25.0721 22.52C25.0881 22.328 25.1281 22.168 25.1921 22.04C25.4801 22.024 25.7521 21.96 26.0081 21.848C26.2641 21.72 26.5361 21.504 26.8241 21.2C27.1281 20.896 27.4801 20.464 27.8801 19.904L29.6321 17.456L30.3761 18.248ZM31.5761 20.552C31.3681 20.216 31.1361 19.864 30.8801 19.496C30.6241 19.112 30.3601 18.728 30.0881 18.344L29.7281 17.816C29.3761 17.304 29.0241 16.808 28.6721 16.328C28.3201 15.848 28.0081 15.424 27.7361 15.056C27.2881 14.448 26.9361 14 26.6801 13.712C26.4241 13.408 26.2081 13.208 26.0321 13.112C25.8561 13 25.6401 12.936 25.3841 12.92C25.3201 12.792 25.2721 12.648 25.2401 12.488C25.2241 12.312 25.2161 12.136 25.2161 11.96C25.5681 11.976 25.9601 11.992 26.3921 12.008C26.8241 12.008 27.2721 12.008 27.7361 12.008C28.2001 12.008 28.6721 12.008 29.1521 12.008C29.6481 11.992 30.0961 11.976 30.4961 11.96C30.4961 12.12 30.4801 12.288 30.4481 12.464C30.4321 12.64 30.4081 12.792 30.3761 12.92C29.8161 12.936 29.4881 13.064 29.3921 13.304C29.3121 13.544 29.5201 14.008 30.0161 14.696C30.1601 14.888 30.3361 15.128 30.5441 15.416C30.7681 15.704 31.0081 16.024 31.2641 16.376L31.5521 16.76C31.9681 17.32 32.3921 17.896 32.8241 18.488C33.2721 19.08 33.6481 19.608 33.9521 20.072C34.3041 20.568 34.5921 20.96 34.8161 21.248C35.0401 21.536 35.2401 21.736 35.4161 21.848C35.6081 21.96 35.8081 22.024 36.0161 22.04C36.0801 22.2 36.1121 22.36 36.1121 22.52C36.1281 22.664 36.1361 22.84 36.1361 23.048C35.6401 23.016 35.2001 23 34.8161 23C34.4321 23 34.0321 23 33.6161 23C33.4081 23 33.1921 23 32.9681 23C32.7441 23 32.5121 23 32.2721 23C32.0481 23 31.8161 23 31.5761 23C31.3361 23.016 31.0961 23.032 30.8561 23.048C30.8561 22.84 30.8561 22.656 30.8561 22.496C30.8721 22.336 30.9041 22.184 30.9521 22.04C31.5121 22.024 31.8481 21.912 31.9601 21.704C32.0721 21.48 31.9441 21.096 31.5761 20.552ZM30.7361 16.736L32.0561 14.696C32.4721 14.056 32.6641 13.608 32.6321 13.352C32.6001 13.08 32.3201 12.936 31.7921 12.92C31.7281 12.776 31.6881 12.624 31.6721 12.464C31.6561 12.288 31.6481 12.12 31.6481 11.96C31.9521 11.976 32.2641 11.992 32.5841 12.008C32.9041 12.008 33.3041 12.008 33.7841 12.008C34.2641 12.008 34.6561 12.008 34.9601 12.008C35.2641 11.992 35.5441 11.976 35.8001 11.96C35.8001 12.12 35.7841 12.288 35.7521 12.464C35.7201 12.64 35.6881 12.792 35.6561 12.92C35.4161 12.936 35.2001 12.984 35.0081 13.064C34.8161 13.144 34.6081 13.304 34.3841 13.544C34.1761 13.768 33.9041 14.112 33.5681 14.576L31.4561 17.552L30.7361 16.736ZM38.1878 23.072C38.1878 22.848 38.1958 22.656 38.2118 22.496C38.2278 22.32 38.2598 22.168 38.3078 22.04C38.7398 22.008 39.0758 21.936 39.3158 21.824C39.5558 21.696 39.7238 21.488 39.8198 21.2C39.9158 20.896 39.9638 20.48 39.9638 19.952V9.824C39.9638 9.28 39.9158 8.864 39.8198 8.576C39.7238 8.288 39.5558 8.08 39.3158 7.952C39.0758 7.824 38.7398 7.752 38.3078 7.736C38.2598 7.608 38.2278 7.456 38.2118 7.28C38.1958 7.104 38.1878 6.912 38.1878 6.704C38.8118 6.736 39.4118 6.76 39.9878 6.776C40.5798 6.776 41.0678 6.776 41.4518 6.776C41.6758 6.776 41.9878 6.776 42.3878 6.776C42.8038 6.76 43.2118 6.752 43.6118 6.752C44.0118 6.736 44.3078 6.728 44.4998 6.728C45.8278 6.728 46.8918 6.944 47.6918 7.376C48.4918 7.808 49.0678 8.376 49.4198 9.08C49.7718 9.784 49.9478 10.552 49.9478 11.384C49.9478 12.296 49.7398 13.176 49.3238 14.024C48.9238 14.872 48.3238 15.568 47.5238 16.112C46.7238 16.656 45.7158 16.928 44.4998 16.928C43.8278 16.928 43.2678 16.84 42.8198 16.664C42.7878 16.488 42.7718 16.32 42.7718 16.16C42.7718 16 42.7958 15.84 42.8438 15.68C43.0518 15.728 43.2598 15.768 43.4678 15.8C43.6758 15.816 43.8918 15.824 44.1158 15.824C44.7078 15.824 45.2598 15.72 45.7718 15.512C46.2838 15.304 46.6998 14.936 47.0198 14.408C47.3398 13.864 47.4998 13.088 47.4998 12.08C47.4998 10.8 47.1798 9.768 46.5398 8.984C45.9158 8.184 44.8838 7.784 43.4438 7.784C43.2678 7.784 43.0598 7.8 42.8198 7.832C42.5958 7.848 42.2758 7.904 41.8598 8L42.2198 7.64V19.472C42.2198 20.16 42.2918 20.688 42.4358 21.056C42.5798 21.408 42.8118 21.656 43.1318 21.8C43.4518 21.928 43.8598 22.008 44.3558 22.04C44.4038 22.168 44.4358 22.32 44.4518 22.496C44.4678 22.656 44.4758 22.848 44.4758 23.072C44.2358 23.056 43.9478 23.04 43.6118 23.024C43.2918 23.024 42.9478 23.016 42.5798 23C42.2118 23 41.8358 23 41.4518 23C41.0838 23 40.6838 23 40.2518 23C39.8198 23.016 39.4198 23.024 39.0518 23.024C38.6838 23.04 38.3958 23.056 38.1878 23.072ZM59.0211 23.216C58.8451 23.136 58.7011 22.992 58.5891 22.784C58.4931 22.576 58.4451 22.248 58.4451 21.8C58.4451 21.656 58.4531 21.488 58.4691 21.296C58.4851 21.088 58.5171 20.904 58.5651 20.744H58.6131C58.5651 21 58.4531 21.28 58.2771 21.584C58.1171 21.872 57.9011 22.128 57.6291 22.352C57.3571 22.592 57.0131 22.792 56.5971 22.952C56.1811 23.096 55.6771 23.168 55.0851 23.168C54.0771 23.168 53.3091 22.944 52.7811 22.496C52.2531 22.032 51.9891 21.408 51.9891 20.624C51.9891 20 52.1331 19.472 52.4211 19.04C52.7251 18.592 53.1091 18.224 53.5731 17.936C54.0531 17.632 54.5651 17.392 55.1091 17.216C55.6691 17.04 56.2131 16.904 56.7411 16.808C57.2691 16.712 57.7331 16.632 58.1331 16.568C58.1331 15.912 58.1171 15.4 58.0851 15.032C58.0691 14.664 58.0211 14.376 57.9411 14.168C57.8771 13.944 57.7731 13.752 57.6291 13.592C57.4371 13.352 57.2131 13.176 56.9571 13.064C56.7171 12.936 56.4451 12.872 56.1411 12.872C55.6131 12.872 55.1971 13.04 54.8931 13.376C54.5891 13.696 54.3731 14.072 54.2451 14.504C54.1171 14.936 54.0451 15.32 54.0291 15.656C53.8531 15.656 53.6291 15.648 53.3571 15.632C53.1011 15.6 52.9091 15.552 52.7811 15.488C52.8131 15.088 52.8211 14.64 52.8051 14.144C52.7891 13.648 52.7411 13.224 52.6611 12.872C53.3171 12.536 54.0051 12.272 54.7251 12.08C55.4611 11.888 56.1331 11.792 56.7411 11.792C57.3331 11.792 57.8371 11.88 58.2531 12.056C58.6851 12.216 59.0291 12.432 59.2851 12.704C59.7011 13.104 59.9731 13.632 60.1011 14.288C60.2291 14.928 60.2931 15.784 60.2931 16.856V19.496C60.2931 19.944 60.3251 20.304 60.3891 20.576C60.4691 20.832 60.6131 21.024 60.8211 21.152C61.0291 21.264 61.3491 21.336 61.7811 21.368C61.7811 21.528 61.7731 21.712 61.7571 21.92C61.7411 22.112 61.7011 22.296 61.6371 22.472C61.2371 22.488 60.7891 22.568 60.2931 22.712C59.8131 22.84 59.3891 23.008 59.0211 23.216ZM55.7571 21.848C56.1091 21.848 56.4691 21.736 56.8371 21.512C57.2051 21.272 57.5091 20.904 57.7491 20.408C58.0051 19.912 58.1331 19.264 58.1331 18.464V17.552C57.7331 17.6 57.3091 17.672 56.8611 17.768C56.4131 17.848 55.9971 17.976 55.6131 18.152C55.2291 18.328 54.9171 18.576 54.6771 18.896C54.4371 19.2 54.3171 19.616 54.3171 20.144C54.3171 20.736 54.4611 21.168 54.7491 21.44C55.0371 21.712 55.3731 21.848 55.7571 21.848ZM63.6062 23.072C63.6062 22.912 63.6142 22.744 63.6302 22.568C63.6462 22.376 63.6782 22.2 63.7262 22.04C64.3662 22.04 64.7982 21.896 65.0222 21.608C65.2622 21.304 65.3822 20.752 65.3822 19.952V9.2C65.3822 8.816 65.3422 8.504 65.2622 8.264C65.1982 8.008 65.0382 7.816 64.7822 7.688C64.5262 7.56 64.1262 7.496 63.5822 7.496C63.5822 7.32 63.5982 7.16 63.6302 7.016C63.6622 6.872 63.7182 6.736 63.7982 6.608C64.0382 6.608 64.3742 6.568 64.8062 6.488C65.2542 6.408 65.6862 6.304 66.1022 6.176C66.5182 6.048 66.8222 5.92 67.0142 5.792C67.1582 5.84 67.2782 5.936 67.3742 6.08C67.4862 6.224 67.5422 6.448 67.5422 6.752V19.952C67.5422 20.752 67.6462 21.304 67.8542 21.608C68.0782 21.896 68.4462 22.04 68.9582 22.04C69.0062 22.2 69.0382 22.384 69.0542 22.592C69.0702 22.8 69.0782 22.96 69.0782 23.072C68.8062 23.056 68.5182 23.04 68.2142 23.024C67.9102 23.024 67.5982 23.016 67.2782 23C66.9742 23 66.6702 23 66.3662 23C66.0622 23 65.7422 23 65.4062 23C65.0862 23.016 64.7742 23.024 64.4702 23.024C64.1662 23.04 63.8782 23.056 63.6062 23.072Z" fill="#61777F"/>
</svg>
