<svg width="74" height="19" viewBox="0 0 74 19" fill="none" xmlns="http://www.w3.org/2000/svg">
<path d="M0.0568182 2.8125V0.545454H13.5653V2.8125H8.11932V18H5.49432V2.8125H0.0568182ZM18.3743 18.2898C17.5447 18.2898 16.7947 18.1364 16.1243 17.8295C15.4538 17.517 14.9226 17.0653 14.5305 16.4744C14.1442 15.8835 13.951 15.1591 13.951 14.3011C13.951 13.5625 14.093 12.9545 14.3771 12.4773C14.6612 12 15.0447 11.6222 15.5277 11.3438C16.0107 11.0653 16.5504 10.8551 17.147 10.7131C17.7436 10.571 18.3516 10.4631 18.9709 10.3892C19.755 10.2983 20.3913 10.2244 20.88 10.1676C21.3686 10.1051 21.7237 10.0057 21.9453 9.86932C22.1669 9.73295 22.2777 9.51136 22.2777 9.20455V9.14489C22.2777 8.40057 22.0675 7.82386 21.647 7.41477C21.2322 7.00568 20.6129 6.80114 19.7891 6.80114C18.9311 6.80114 18.255 6.99148 17.7607 7.37216C17.272 7.74716 16.9339 8.16477 16.7464 8.625L14.3516 8.07955C14.6357 7.28409 15.0504 6.64205 15.5959 6.15341C16.147 5.65909 16.7805 5.30114 17.4964 5.07954C18.2124 4.85227 18.9652 4.73864 19.755 4.73864C20.2777 4.73864 20.8317 4.80114 21.4169 4.92614C22.0078 5.04545 22.5589 5.26705 23.0703 5.59091C23.5874 5.91477 24.0107 6.37784 24.3402 6.98011C24.6697 7.5767 24.8345 8.35227 24.8345 9.30682V18H22.3459V16.2102H22.2436C22.0788 16.5398 21.8317 16.8636 21.5021 17.1818C21.1726 17.5 20.7493 17.7642 20.2322 17.9744C19.7152 18.1847 19.0959 18.2898 18.3743 18.2898ZM18.9283 16.2443C19.6328 16.2443 20.2351 16.1051 20.7351 15.8267C21.2408 15.5483 21.6243 15.1847 21.8857 14.7358C22.1527 14.2812 22.2862 13.7955 22.2862 13.2784V11.5909C22.1953 11.6818 22.0192 11.767 21.7578 11.8466C21.5021 11.9205 21.2095 11.9858 20.88 12.0426C20.5504 12.0937 20.2294 12.142 19.9169 12.1875C19.6044 12.2273 19.343 12.2614 19.1328 12.2898C18.6385 12.3523 18.1868 12.4574 17.7777 12.6051C17.3743 12.7528 17.0504 12.9659 16.8061 13.2443C16.5675 13.517 16.4482 13.8807 16.4482 14.3352C16.4482 14.9659 16.6811 15.4432 17.147 15.767C17.6129 16.0852 18.2067 16.2443 18.9283 16.2443ZM30.2401 4.90909L33.1293 10.0057L36.044 4.90909H38.831L34.7486 11.4545L38.8651 18H36.0781L33.1293 13.108L30.1889 18H27.3935L31.4673 11.4545L27.4446 4.90909H30.2401Z" fill="black"/>
<path d="M41.2514 18V0.545454H48.1378C49.4616 0.545454 50.5895 0.798295 51.5213 1.30398C52.4531 1.80398 53.1634 2.5 53.652 3.39204C54.1463 4.27841 54.3935 5.30114 54.3935 6.46023C54.3935 7.61932 54.1435 8.64205 53.6435 9.52841C53.1435 10.4148 52.419 11.1051 51.4702 11.5994C50.527 12.0937 49.3849 12.3409 48.044 12.3409H43.6548V9.38352H47.4474C48.1577 9.38352 48.7429 9.26136 49.2031 9.01705C49.669 8.76705 50.0156 8.4233 50.2429 7.9858C50.4759 7.54261 50.5923 7.03409 50.5923 6.46023C50.5923 5.88068 50.4759 5.375 50.2429 4.94318C50.0156 4.50568 49.669 4.16761 49.2031 3.92898C48.7372 3.68466 48.1463 3.5625 47.4304 3.5625H44.9418V18H41.2514ZM60.1037 18.2472C59.2685 18.2472 58.5241 18.1023 57.8707 17.8125C57.2173 17.517 56.7003 17.0824 56.3196 16.5085C55.9446 15.929 55.7571 15.2074 55.7571 14.3438C55.7571 13.6165 55.8906 13.0057 56.1577 12.5114C56.4247 12.017 56.7884 11.6193 57.2486 11.3182C57.7088 11.017 58.2315 10.7898 58.8168 10.6364C59.4077 10.483 60.027 10.375 60.6747 10.3125C61.4361 10.233 62.0497 10.1591 62.5156 10.0909C62.9815 10.017 63.3196 9.90909 63.5298 9.76705C63.7401 9.625 63.8452 9.41477 63.8452 9.13636V9.08523C63.8452 8.54545 63.6747 8.12784 63.3338 7.83239C62.9986 7.53693 62.5213 7.3892 61.902 7.3892C61.2486 7.3892 60.7287 7.53409 60.3423 7.82386C59.956 8.10795 59.7003 8.46591 59.5753 8.89773L56.2173 8.625C56.3878 7.82955 56.723 7.14205 57.223 6.5625C57.723 5.97727 58.3679 5.52841 59.1577 5.21591C59.9531 4.89773 60.8736 4.73864 61.919 4.73864C62.6463 4.73864 63.3423 4.82386 64.0071 4.99432C64.6776 5.16477 65.2713 5.42898 65.7884 5.78693C66.3111 6.14489 66.723 6.60511 67.0241 7.16761C67.3253 7.72443 67.4759 8.39205 67.4759 9.17045V18H64.0327V16.1847H63.9304C63.7202 16.5938 63.4389 16.9545 63.0866 17.267C62.7344 17.5739 62.3111 17.8153 61.8168 17.9915C61.3224 18.1619 60.7514 18.2472 60.1037 18.2472ZM61.1435 15.7415C61.6776 15.7415 62.1491 15.6364 62.5582 15.4261C62.9673 15.2102 63.2884 14.9205 63.5213 14.5568C63.7543 14.1932 63.8707 13.7812 63.8707 13.321V11.9318C63.7571 12.0057 63.6009 12.0739 63.402 12.1364C63.2088 12.1932 62.9901 12.2472 62.7457 12.2983C62.5014 12.3437 62.2571 12.3864 62.0128 12.4261C61.7685 12.4602 61.5469 12.4915 61.348 12.5199C60.9219 12.5824 60.5497 12.6818 60.2315 12.8182C59.9134 12.9545 59.6662 13.1392 59.4901 13.3722C59.3139 13.5994 59.2259 13.8835 59.2259 14.2244C59.2259 14.7188 59.4048 15.0966 59.7628 15.358C60.1264 15.6136 60.5866 15.7415 61.1435 15.7415ZM73.9233 0.545454V18H70.2926V0.545454H73.9233Z" fill="#111827"/>
</svg>
